<svg width="24" height="24" viewBox="0 0 24 24" fill="none" xmlns="http://www.w3.org/2000/svg">
<path d="M11.2744 5.06206C11.5612 4.44474 12.4388 4.44474 12.7256 5.06206L14.4817 8.84285C14.5987 9.09471 14.8379 9.26788 15.1137 9.30036L19.2677 9.78946C19.9473 9.86948 20.2193 10.7104 19.7153 11.1732L16.6517 13.9867C16.4458 14.1758 16.3535 14.4587 16.4084 14.7328L17.2227 18.803C17.3566 19.4717 16.6458 19.9905 16.0496 19.6591L12.3887 17.6242C12.147 17.4898 11.853 17.4898 11.6113 17.6242L7.95039 19.6591C7.35424 19.9905 6.64344 19.4717 6.77726 18.803L7.59164 14.7328C7.6465 14.4587 7.55424 14.1758 7.34831 13.9867L4.28469 11.1732C3.78069 10.7104 4.05267 9.86948 4.73226 9.78946L8.88632 9.30036C9.16212 9.26788 9.40134 9.09471 9.51833 8.84285L11.2744 5.06206Z" fill="#FFDA47"/>
</svg>
