<svg width="24" height="24" viewBox="0 0 24 24" fill="none" xmlns="http://www.w3.org/2000/svg">
<path d="M11.2743 5.06206C11.5611 4.44474 12.4387 4.44474 12.7254 5.06206L14.4816 8.84285C14.5985 9.09471 14.8378 9.26788 15.1136 9.30036L19.2676 9.78946C19.9472 9.86948 20.2192 10.7104 19.7152 11.1732L16.6516 13.9867C16.4456 14.1758 16.3534 14.4587 16.4082 14.7328L17.2226 18.803C17.3564 19.4717 16.6456 19.9905 16.0495 19.6591L12.3886 17.6242C12.1469 17.4898 11.8529 17.4898 11.6112 17.6242L7.95026 19.6591C7.35412 19.9905 6.64332 19.4717 6.77713 18.803L7.59152 14.7328C7.64638 14.4587 7.55412 14.1758 7.34819 13.9867L4.28457 11.1732C3.78057 10.7104 4.05255 9.86948 4.73214 9.78946L8.8862 9.30036C9.162 9.26788 9.40122 9.09471 9.51821 8.84285L11.2743 5.06206Z" fill="#FAFAFC"/>
</svg>
