<svg width="32" height="32" viewBox="0 0 32 32" fill="none" xmlns="http://www.w3.org/2000/svg">
<rect width="32" height="32" rx="6" fill="black"/>
<path d="M17.9582 27.2364C17.9348 27.3158 17.8951 27.3866 17.8429 27.4421C17.7908 27.4976 17.728 27.5358 17.6606 27.5531C17.5933 27.5704 17.5236 27.5661 17.4583 27.5408C17.393 27.5154 17.3344 27.4698 17.288 27.4084L11.9416 20.7057C11.8929 20.6446 11.8579 20.5692 11.8399 20.4864C11.822 20.4037 11.8216 20.3165 11.8389 20.2331C11.8562 20.1497 11.8906 20.0728 11.9388 20.0098C11.987 19.9468 12.0474 19.8998 12.1143 19.8732L16.687 18.0537C16.7597 18.0225 16.838 18.0177 16.9125 18.0399C16.9869 18.062 17.0542 18.1103 17.1062 18.1787C18.7329 20.2726 19.1086 24.291 17.9582 27.2364Z" fill="white"/>
<path d="M15.0591 4.22324C14.1833 5.55765 13.9782 7.14069 13.8833 8.72938C13.7884 10.3181 14.205 12.6705 15.2054 14.6411L16.8774 17.9582C16.9123 18.0273 16.9659 18.0854 17.0323 18.126C17.0986 18.1666 17.1751 18.1881 17.2531 18.1881H22.1463C22.2179 18.1881 22.2883 18.17 22.3508 18.1355C22.4134 18.1009 22.4659 18.0512 22.5036 17.9908C22.5412 17.9305 22.5627 17.8617 22.5659 17.7909C22.5691 17.72 22.554 17.6495 22.522 17.5861C22.522 17.5861 15.939 4.54677 15.7736 4.22063C15.7409 4.15424 15.6899 4.09833 15.6266 4.05931C15.5633 4.02028 15.4901 3.99973 15.4155 4C15.3409 4.00028 15.2679 4.02136 15.2049 4.06085C15.1418 4.10033 15.0913 4.15662 15.0591 4.22324Z" fill="white"/>
<path d="M25.7399 22.1553C24.5186 21.8358 23.053 19.3272 22.5645 18.2628C27.9383 17.6851 28.1825 20.5588 27.9383 21.1974C27.694 21.8361 26.9612 22.4747 25.7399 22.1553Z" fill="white"/>
<path d="M6.37243 15.6583C8.23292 15.817 10.7587 18.9342 11.6321 20.2876C3.71952 22.3202 2.95983 18.4191 3.23501 17.4834C3.51019 16.5476 4.51195 15.4995 6.37243 15.6583Z" fill="white"/>
</svg>
